<svg xmlns="http://www.w3.org/2000/svg" fill="none" viewBox="0 0 52 24" height="24" width="52">
<path fill="black" d="M25.1779 10.0247C24.9972 8.75296 23.7755 7.78651 22.373 7.78651C19.8381 7.78651 18.8852 9.93473 18.8852 12.174C18.8852 14.3061 19.8381 16.4544 22.373 16.4544C24.0981 16.4544 25.0693 15.2726 25.2844 13.5883H28.0183C27.73 16.7769 25.5188 18.8179 22.373 18.8179C18.3992 18.8179 16.0621 15.863 16.0621 12.174C16.0621 8.37687 18.3992 5.42188 22.373 5.42188C25.1951 5.42188 27.5676 7.06973 27.9107 10.0247H25.1779Z"></path>
<path fill="black" d="M28.865 5.72656H34.9059C37.3505 5.72656 39.0047 6.51406 39.0047 8.89583C39.0047 10.1505 38.3766 11.028 37.2613 11.5648C38.825 12.0126 39.6167 13.2126 39.6167 14.8069C39.6167 17.4051 37.4054 18.5141 35.0856 18.5141H28.865V5.72656ZM31.6881 10.9026H34.5467C35.5351 10.9026 36.2718 10.4537 36.2718 9.37906C36.2718 8.16191 35.3372 7.91119 34.3305 7.91119H31.6881V10.9026ZM31.6881 16.3283H34.7091C35.8233 16.3283 36.7934 15.9705 36.7934 14.6462C36.7934 13.3391 35.9664 12.8183 34.7618 12.8183H31.6881V16.3283Z"></path>
<path fill="black" d="M43.0868 14.2687C43.0868 15.9702 44.4185 16.6323 45.9284 16.6323C46.9168 16.6323 48.4266 16.3462 48.4266 15.0391C48.4266 13.6602 46.5038 13.4277 44.6163 12.9252C42.7104 12.4237 40.7864 11.6887 40.7864 9.28983C40.7864 6.67447 43.2666 5.4209 45.5862 5.4209C48.2642 5.4209 50.7282 6.58447 50.7282 9.54052H47.9956C47.9063 8.00089 46.8082 7.60662 45.4592 7.60662C44.5624 7.60662 43.5183 7.98268 43.5183 9.05733C43.5183 10.042 44.1302 10.1673 47.3478 10.9923C48.2834 11.2237 51.1596 11.8152 51.1596 14.7166C51.1596 17.0631 49.3076 18.8181 45.8199 18.8181C42.9794 18.8181 40.3188 17.4209 40.3542 14.2687H43.0868Z"></path>
<path fill="black" d="M0.777283 11.9987C0.777283 8.19304 3.8736 5.1084 7.69372 5.1084C11.5149 5.1084 14.6123 8.19304 14.6123 11.9987C14.6123 15.8055 11.5149 18.8923 7.69372 18.8923C3.8736 18.8923 0.777283 15.8055 0.777283 11.9987ZM14.1928 11.9987C13.1443 9.72091 10.7104 7.88982 7.69372 7.88982C4.677 7.88982 2.24424 9.72091 1.19565 11.9987C2.24424 14.2777 4.677 16.1077 7.69372 16.1077C10.7104 16.1077 13.1443 14.2777 14.1928 11.9987Z"></path>
<path fill="black" d="M3.99356 11.9641C3.99356 9.94555 5.63367 8.31055 7.65771 8.31055C9.68285 8.31055 11.324 9.94555 11.324 11.9641C11.324 13.9805 9.68285 15.6155 7.65771 15.6155C5.63367 15.6155 3.99356 13.9805 3.99356 11.9641Z"></path>
</svg>
