<svg xmlns="http://www.w3.org/2000/svg" fill="none" viewBox="0 0 24 24" height="24" width="24">
<path fill="url(#paint0_linear_3043_24)" d="M20.872 16.545C20.872 14.55 19.2445 12.9225 17.2495 12.9225C15.877 12.9225 14.6995 13.695 14.0845 14.8275H9.91445C9.29948 13.695 8.12198 12.9225 6.74947 12.9225C4.75449 12.9225 3.12695 14.55 3.12695 16.545C3.12695 18.5475 4.75448 20.175 6.74947 20.175C8.74445 20.175 10.372 18.5475 10.372 16.545C10.372 16.47 10.357 16.4025 10.3495 16.3275H13.6495C13.642 16.4025 13.627 16.47 13.627 16.545C13.627 18.5475 15.2545 20.175 17.2495 20.175C19.2445 20.175 20.872 18.5475 20.872 16.545Z"></path>
<path fill="url(#paint1_linear_3043_24)" d="M22.7024 11.085C21.5249 10.755 20.3324 10.4775 19.1399 10.2525L17.9849 4.43246C17.9399 4.21498 17.8049 4.02748 17.6174 3.92246C17.4224 3.81746 17.1899 3.80249 16.9874 3.87746C13.7699 5.09246 10.2299 5.09246 7.0124 3.87746C6.80994 3.79498 6.57744 3.81746 6.38994 3.92246C6.19493 4.02747 6.05994 4.21497 6.01494 4.43246L4.85991 10.2525C3.66743 10.4775 2.47491 10.7549 1.2899 11.085C0.892422 11.205 0.66743 11.6175 0.779907 12.0149C0.892422 12.4125 1.30491 12.6375 1.70244 12.5324C8.43742 10.605 15.5624 10.605 22.2974 12.5324C22.3649 12.5475 22.4324 12.5625 22.4999 12.5625C22.8299 12.5625 23.1299 12.3449 23.2199 12.0149C23.3324 11.6175 23.1074 11.205 22.7024 11.085Z"></path>
<defs>
<linearGradient gradientUnits="userSpaceOnUse" y2="20.175" x2="11.9995" y1="12.9225" x1="11.9995" id="paint0_linear_3043_24">
<stop stop-color="#FEFEFE" offset="0.2"></stop>
<stop stop-color="#CDCDCD" offset="1"></stop>
</linearGradient>
<linearGradient gradientUnits="userSpaceOnUse" y2="12.5625" x2="11.9999" y1="3.82739" x1="11.9999" id="paint1_linear_3043_24">
<stop stop-color="#FEFEFE" offset="0.2"></stop>
<stop stop-color="#CDCDCD" offset="1"></stop>
</linearGradient>
</defs>
</svg>
