<svg xmlns="http://www.w3.org/2000/svg" fill="none" viewBox="0 0 20 20" height="20" width="20">
<g clip-path="url(#clip0_3168_22148)">
<path fill="#FF30CC" d="M3.86719 7.66602C3.54359 7.66602 3.28125 7.92836 3.28125 8.25195V9.42383C3.28125 9.74742 3.54359 10.0098 3.86719 10.0098C4.19078 10.0098 4.45312 9.74742 4.45312 9.42383V8.25195C4.45312 7.92836 4.19078 7.66602 3.86719 7.66602Z"></path>
<path fill="#FF30CC" d="M19.4141 10.0051H17.8125V8.2473C17.8125 7.92371 17.5502 7.66137 17.2266 7.66137H7.77344V5.90398C7.77344 5.58016 7.5109 5.31762 7.18707 5.31762H6.67969V3.56023C6.67969 1.93906 5.42676 0.620117 3.88672 0.620117C2.34668 0.620117 1.09375 1.93906 1.09375 3.56023V5.31762H0.586367C0.262539 5.31762 0 5.58012 0 5.90394V11.7625C0 12.0863 0.262539 12.3488 0.586367 12.3488H2.34375V16.4504C2.34375 16.774 2.60609 17.0363 2.92969 17.0363H4.53125V18.7941C4.53125 19.1177 4.79359 19.3801 5.11719 19.3801H19.4141C19.7377 19.3801 20 19.1177 20 18.7941V10.591C20 10.2674 19.7377 10.0051 19.4141 10.0051ZM16.6406 8.83324V10.0051H7.77344V8.83324H16.6406ZM2.26562 3.56023C2.26562 2.58523 2.99285 1.79199 3.88672 1.79199C4.78059 1.79199 5.50781 2.58523 5.50781 3.56023V5.31762H2.26562V3.56023ZM1.17188 6.48949H6.60156V11.177H1.17188V6.48949ZM3.51562 15.8645V12.3489H4.53125V15.8645H3.51562ZM18.8281 18.2082H5.70312V12.3489H7.18707C7.5109 12.3489 7.77344 12.0863 7.77344 11.7625V11.177H18.8281V18.2082Z"></path>
<path fill="#FF30CC" d="M12.273 12.3535C11.0412 12.3535 10.0391 13.4049 10.0391 14.6973C10.0391 15.9896 11.0412 17.041 12.273 17.041C13.5048 17.041 14.5069 15.9896 14.5069 14.6973C14.5069 13.4049 13.5047 12.3535 12.273 12.3535ZM12.273 15.8691C11.6874 15.8691 11.2109 15.3434 11.2109 14.6973C11.2109 14.0511 11.6873 13.5254 12.273 13.5254C12.8586 13.5254 13.335 14.0511 13.335 14.6973C13.335 15.3434 12.8586 15.8691 12.273 15.8691Z"></path>
<path fill="#FF30CC" d="M8.42775 14.1064H7.3445C7.04372 14.1064 6.77985 14.3268 6.74685 14.6257C6.70786 14.9792 6.98353 15.2783 7.32911 15.2783H8.41236C8.71314 15.2783 8.977 15.058 9.01001 14.759C9.049 14.4056 8.77329 14.1064 8.42775 14.1064Z"></path>
<path fill="#FF30CC" d="M16.1182 14.1064C15.7726 14.1064 15.4969 14.4056 15.5359 14.759C15.5689 15.058 15.8328 15.2783 16.1336 15.2783H17.2014C17.5022 15.2783 17.7661 15.058 17.7991 14.759C17.8381 14.4056 17.5624 14.1064 17.2168 14.1064H16.1182Z"></path>
</g>
<defs>
<clipPath id="clip0_3168_22148">
<rect fill="white" height="20" width="20"></rect>
</clipPath>
</defs>
</svg>
