<svg xmlns="http://www.w3.org/2000/svg" fill="none" viewBox="0 0 24 24" height="24" width="24">
<g clip-path="url(#clip0_3043_494)">
<path fill="url(#paint0_linear_3043_494)" d="M12 5.625C8.4848 5.625 5.625 8.48484 5.625 12C5.625 15.5152 8.4848 18.375 12 18.375C15.5152 18.375 18.375 15.5152 18.375 12C18.375 8.48484 15.5152 5.625 12 5.625ZM11.0056 15.1074L8.27114 12.3729L9.2655 11.3785L11.0056 13.1187L14.7345 9.38977L15.7289 10.3841L11.0056 15.1074Z"></path>
<path fill="url(#paint1_linear_3043_494)" d="M22.691 8.84011C22.1126 8.26167 21.794 7.49264 21.794 6.67462C21.794 4.21055 19.7893 2.20584 17.3253 2.20584C16.5072 2.20584 15.7382 1.88728 15.1597 1.30889C14.3157 0.464859 13.1935 0 11.9998 0C10.8062 0 9.68397 0.464859 8.83994 1.30889C8.26155 1.88728 7.49247 2.20584 6.67441 2.20584C4.21033 2.20584 2.20568 4.21055 2.20568 6.67462C2.20568 7.49264 1.88711 8.26167 1.30868 8.84011C-0.433621 10.5825 -0.433621 13.4175 1.30868 15.1599C1.88711 15.7383 2.20568 16.5074 2.20568 17.3254C2.20568 19.7895 4.21038 21.7942 6.67441 21.7942C7.49247 21.7942 8.2615 22.1127 8.83994 22.6911C9.68397 23.5351 10.8062 24 11.9998 24C13.1935 24 14.3157 23.5351 15.1597 22.6911C15.7381 22.1127 16.5072 21.7942 17.3253 21.7942C19.7893 21.7942 21.794 19.7895 21.794 17.3254C21.794 16.5074 22.1126 15.7383 22.691 15.1599C24.4333 13.4175 24.4333 10.5825 22.691 8.84011ZM19.7811 12C19.7811 16.2906 16.2904 19.7812 11.9998 19.7812C7.70922 19.7812 4.21858 16.2906 4.21858 12C4.21858 7.70944 7.70922 4.21875 11.9998 4.21875C16.2904 4.21875 19.7811 7.70944 19.7811 12Z"></path>
</g>
<defs>
<linearGradient gradientUnits="userSpaceOnUse" y2="18.375" x2="12" y1="5.625" x1="12" id="paint0_linear_3043_494">
<stop stop-color="#FEFEFE" offset="0.2"></stop>
<stop stop-color="#CDCDCD" offset="1"></stop>
</linearGradient>
<linearGradient gradientUnits="userSpaceOnUse" y2="24" x2="11.9998" y1="0" x1="11.9998" id="paint1_linear_3043_494">
<stop stop-color="#FEFEFE" offset="0.2"></stop>
<stop stop-color="#CDCDCD" offset="1"></stop>
</linearGradient>
<clipPath id="clip0_3043_494">
<rect fill="white" height="24" width="24"></rect>
</clipPath>
</defs>
</svg>
