<svg xmlns="http://www.w3.org/2000/svg" fill="none" viewBox="0 0 20 20" height="20" width="20">
<path fill="#FF30CC" d="M18.5669 11.7456C19.1488 12.3101 18.2481 13.2114 17.6831 12.6293L15.9375 10.8838L14.1919 12.6293C13.627 13.2114 12.7263 12.3101 13.3081 11.7456L15.0537 9.99995L13.3081 8.25432C12.7263 7.6897 13.6269 6.78857 14.1919 7.37057L15.9375 9.11614L17.6831 7.37057C18.2481 6.78857 19.1487 7.6897 18.5669 8.25432L16.8213 9.99995L18.5669 11.7456ZM10.5334 2.67632L5.42806 6.24995H3.125C2.62772 6.24995 2.15081 6.44749 1.79917 6.79912C1.44754 7.15075 1.25 7.62767 1.25 8.12495V11.8749C1.25 12.3722 1.44754 12.8491 1.79917 13.2008C2.15081 13.5524 2.62772 13.7499 3.125 13.7499H5.42806L10.5334 17.3236C10.7214 17.4517 10.9406 17.5265 11.1678 17.5399C11.3949 17.5533 11.6214 17.5049 11.8231 17.3999C12.0249 17.2948 12.1944 17.1369 12.3136 16.9431C12.4328 16.7494 12.4972 16.5269 12.5 16.2994V3.70051C12.4971 3.47306 12.4327 3.25063 12.3135 3.0569C12.1943 2.86316 12.0248 2.70536 11.823 2.60029C11.6213 2.49522 11.3948 2.4468 11.1677 2.46019C10.9406 2.47358 10.7214 2.54827 10.5334 2.67632ZM5 12.4999H3.125C2.95924 12.4999 2.80027 12.4341 2.68306 12.3169C2.56585 12.1997 2.5 12.0407 2.5 11.8749V8.12495C2.5 7.95919 2.56585 7.80022 2.68306 7.68301C2.80027 7.5658 2.95924 7.49995 3.125 7.49995H5V12.4999ZM11.2506 16.2999L6.25 12.7999V7.20057L11.25 3.70057L11.2537 16.3016L11.2506 16.2999Z"></path>
</svg>
