<svg xmlns="http://www.w3.org/2000/svg" fill="none" viewBox="0 0 20 20" height="20" width="20">
<path fill="#FF30CC" d="M19.4141 12.9482H19.2037V11.7425C19.2037 10.4363 18.1411 9.3737 16.8349 9.3737C15.9991 9.3737 15.2634 9.80929 14.8417 10.465V4.77284C14.8417 4.51648 14.675 4.28987 14.4304 4.21351C14.1316 4.12026 7.89664 2.17425 7.59801 2.08105C7.47945 2.04355 7.35465 2.04569 7.24363 2.08097L0.411367 4.21351C0.16668 4.28987 0 4.51648 0 4.77284V13.5341C0 13.7905 0.166641 14.0171 0.411328 14.0935L7.24359 16.226C7.35156 16.2603 7.4798 16.2634 7.59797 16.226L13.6698 14.3309V17.36C13.6698 17.6836 13.9321 17.9459 14.2557 17.9459H19.4141C19.7377 17.9459 20 17.6836 20 17.36V13.5342C20 13.2105 19.7377 12.9482 19.4141 12.9482ZM6.83473 14.8707L1.17188 13.1032V5.20378L6.83473 3.43624V14.8707ZM13.6698 13.1032L8.00664 14.8707V3.43624L10.6088 4.24839V6.04519C10.6088 6.36878 10.8711 6.63112 11.1947 6.63112C11.5183 6.63112 11.7807 6.36878 11.7807 6.04519V4.61417L13.6698 5.20378V13.1032ZM15.638 11.7425C15.638 11.0825 16.175 10.5456 16.8349 10.5456C17.4949 10.5456 18.0318 11.0825 18.0318 11.7425V12.9482H15.638V11.7425ZM18.8281 16.774H14.8417V14.1201H18.8281V16.774Z"></path>
<path fill="#FF30CC" d="M16.835 14.709C16.5114 14.709 16.249 14.9713 16.249 15.2949V15.5996C16.249 15.9232 16.5114 16.1856 16.835 16.1856C17.1586 16.1856 17.4209 15.9232 17.4209 15.5996V15.2949C17.4209 14.9713 17.1586 14.709 16.835 14.709Z"></path>
</svg>
