<svg xmlns="http://www.w3.org/2000/svg" fill="none" viewBox="0 0 25 24" height="24" width="25">
<path fill="#1A1A1A" d="M16.0493 13.917C14.9618 14.065 13.472 14.2678 12.304 14.2678C11.1583 14.2678 9.72253 14.065 8.67403 13.9155C7.28003 13.7167 7.02928 13.6807 6.76778 13.9087C6.64803 14.0127 6.57178 14.1783 6.57178 14.337C6.57178 17.5388 9.18653 20.144 12.4 20.144C15.6135 20.144 18.2283 17.5388 18.2283 14.337C18.2283 14.1795 18.1525 14.0143 18.0338 13.91C17.7728 13.6835 17.509 13.7195 16.0493 13.917ZM10.983 18.8307C11.451 18.3685 12.048 18.121 12.6288 18.1565C13.4983 18.214 13.989 18.4515 14.262 18.666C13.6895 18.9108 13.0615 19.0505 12.4003 19.0505C11.906 19.0503 11.431 18.971 10.983 18.8307ZM15.2503 18.0975C14.8708 17.6698 14.1278 17.1608 12.701 17.0653C11.6773 17.0023 10.6503 17.4833 9.93778 18.3608C8.72428 17.6225 7.86828 16.3565 7.69628 14.8855C7.93828 14.9148 8.23928 14.9575 8.52028 14.9975C9.60103 15.151 11.0813 15.3617 12.3038 15.3617C13.5458 15.3617 15.0778 15.1523 16.1965 15.0003C16.5078 14.9575 16.8415 14.9123 17.1038 14.8815C16.952 16.192 16.257 17.3398 15.2503 18.0975Z"></path>
<path fill="#1A1A1A" d="M22.7558 7.7565L21.7013 7.2675C21.3303 6.51125 20.857 5.80725 20.2903 5.1695L20.1513 4.26525C20.0955 3.8745 19.8233 3.55825 19.441 3.44075C19.1395 3.34825 18.8255 3.39875 18.583 3.56C16.78 2.22075 14.5778 1.488 12.3298 1.488C10.078 1.488 7.87776 2.22325 6.08076 3.56725C5.83651 3.405 5.53351 3.3535 5.24226 3.43575C4.86101 3.54525 4.58076 3.856 4.50876 4.26025L4.38426 5.1545C3.83401 5.774 3.35826 6.47925 2.96626 7.25525L1.90876 7.762C1.55351 7.93925 1.33301 8.29425 1.33301 8.69025C1.33301 9.077 1.54826 9.42675 1.89051 9.5975L2.09501 9.69775C1.91901 10.4555 1.82476 11.2295 1.82476 12.0067C1.82476 17.799 6.53726 22.512 12.3295 22.512C18.1293 22.512 22.848 17.799 22.848 12.0067C22.848 11.2245 22.7543 10.449 22.5798 9.693L22.7643 9.599C23.1153 9.424 23.333 9.07175 23.333 8.681C23.333 8.28875 23.1153 7.9365 22.7558 7.7565ZM19.0703 4.4255L19.2343 5.4915C19.2395 5.52625 19.249 5.5595 19.262 5.593L19.4625 6.86575C19.493 7.19925 19.7075 7.5035 20.0298 7.6635L22.1973 8.66125L20.0498 9.75525C19.7628 9.89925 19.556 10.1782 19.4925 10.5277L19.2743 12.9597L17.5013 11.1762C17.2945 10.9922 17.046 10.8947 16.7818 10.8947C16.7225 10.8947 16.6625 10.9 16.602 10.9095L14.2218 11.4537L15.3725 9.234C15.5285 8.92325 15.5155 8.54825 15.3525 8.28025L14.1005 6.1805L16.5543 6.57675C16.8868 6.62875 17.216 6.52725 17.4663 6.278L18.9993 4.6625L19.0703 4.4255ZM4.65051 7.6605C4.93751 7.5165 5.14451 7.2375 5.20626 6.9L5.42501 5.49125L5.46851 4.4695L7.20301 6.2865C7.44026 6.52525 7.79001 6.63725 8.09926 6.576L10.4968 6.077L9.30051 8.2915C9.15476 8.58225 9.15476 8.9425 9.30251 9.23725L10.377 11.3342L8.05401 10.9087C7.73026 10.8475 7.38376 10.9635 7.14876 11.1967L5.49451 13.0002L5.16926 10.55C5.13751 10.2017 4.91576 9.89375 4.61351 9.7575L2.97526 8.92375L2.39051 8.74225L4.65051 7.6605ZM21.7553 12.0067C21.7553 17.196 17.527 21.4182 12.3298 21.4182C7.14001 21.4182 2.91801 17.1962 2.91801 12.0067C2.91801 11.3865 2.97876 10.7875 3.10101 10.1902L4.08376 10.6715L4.41201 13.1475C4.46651 13.5422 4.73751 13.8652 5.11901 13.988C5.22476 14.0212 5.33251 14.0375 5.43851 14.0375C5.71076 14.0375 5.97176 13.9295 6.15926 13.732L7.86026 11.9845L10.3218 12.4352C10.71 12.502 11.0978 12.346 11.3315 12.0242C11.5633 11.704 11.5913 11.2892 11.4043 10.9425L10.27 8.7975L11.4548 6.6045C11.6475 6.26025 11.6233 5.844 11.3915 5.5185C11.1605 5.193 10.776 5.0315 10.3995 5.10225L7.98451 5.52375L6.86451 4.34975C8.44901 3.207 10.3673 2.58225 12.33 2.58225C14.2933 2.58225 16.2163 3.207 17.8085 4.349L16.7335 5.4985L14.2803 5.10225C13.888 5.03825 13.5053 5.19425 13.2775 5.51725C13.048 5.84275 13.0258 6.259 13.2143 6.59525L14.3995 8.73625L13.2485 10.9575C13.0733 11.307 13.1095 11.7192 13.3428 12.034C13.5765 12.3487 13.9615 12.5075 14.355 12.4355L16.7508 11.97L18.4998 13.731C18.6988 13.931 18.9615 14.0377 19.2305 14.0377C19.3395 14.0377 19.4495 14.0205 19.5568 13.9842C19.929 13.8587 20.1938 13.5387 20.2483 13.1452L20.543 10.732L21.5763 10.2052C21.6938 10.7955 21.7553 11.3987 21.7553 12.0067Z"></path>
</svg>
