<svg xmlns="http://www.w3.org/2000/svg" fill="none" viewBox="0 0 228 19" height="19" width="228">
<path stroke-linejoin="round" stroke-linecap="round" stroke="#FF30CC" d="M0.5 9.82143H4.56452L8.04839 1.25L12.6935 17.25L14.4355 9.82143L18.5 9.25"></path>
<path stroke-linejoin="round" stroke-linecap="round" stroke-width="1.5" stroke="#FF30CC" d="M21.5 9.82143H25.5645L29.0484 1.25L33.6935 17.25L35.4355 9.82143L39.5 9.25"></path>
<path stroke-linejoin="round" stroke-linecap="round" stroke-width="2" stroke="#FF30CC" d="M42.5 9.82143H46.5645L50.0484 1.25L54.6935 17.25L56.4355 9.82143L60.5 9.25"></path>
<path stroke-linejoin="round" stroke-linecap="round" stroke-width="2.5" stroke="#FF30CC" d="M63.5 9.82143H67.5645L71.0484 1.25L75.6935 17.25L77.4355 9.82143L81.5 9.25"></path>
<path stroke-linejoin="round" stroke-linecap="round" stroke-width="2" stroke="#FF30CC" d="M84.5 9.82143H88.5645L92.0484 1.25L96.6935 17.25L98.4355 9.82143L102.5 9.25"></path>
<path stroke-linejoin="round" stroke-linecap="round" stroke-width="1.5" stroke="#FF30CC" d="M105.5 9.82143H109.565L113.048 1.25L117.694 17.25L119.435 9.82143L123.5 9.25"></path>
<path stroke-linejoin="round" stroke-linecap="round" stroke="#FF30CC" d="M126.5 9.82143H130.565L134.048 1.25L138.694 17.25L140.435 9.82143L144.5 9.25"></path>
<path stroke-linejoin="round" stroke-linecap="round" stroke-width="1.5" stroke="#FF30CC" d="M147.5 9.82143H151.339L154.629 1.25L159.016 17.25L160.661 9.82143L164.5 9.25"></path>
<path stroke-linejoin="round" stroke-linecap="round" stroke-width="2" stroke="#FF30CC" d="M167.5 9.82143H171.565L175.048 1.25L179.694 17.25L181.435 9.82143L185.5 9.25"></path>
<path stroke-linejoin="round" stroke-linecap="round" stroke-width="2.5" stroke="#FF30CC" d="M188.5 9.82143H192.565L196.048 1.25L200.694 17.25L202.435 9.82143L206.5 9.25"></path>
<path stroke-linejoin="round" stroke-linecap="round" stroke-width="2" stroke="#FF30CC" d="M209.5 9.82143H213.339L216.629 1.25L221.016 17.25L222.661 9.82143L226.5 9.25"></path>
</svg>
