<svg xmlns="http://www.w3.org/2000/svg" fill="none" viewBox="0 0 20 20" height="20" width="20">
<path fill="#FF30CC" d="M19.8991 6.64683C19.7465 6.22753 19.4397 5.89268 19.0353 5.70412C17.5712 5.02138 15.9289 4.94974 14.4109 5.50221L12.8248 6.07948L8.29813 3.83911C8.15465 3.76813 7.98824 3.75887 7.83781 3.81364L5.13513 4.79736C4.93102 4.87166 4.78477 5.05271 4.75509 5.26787C4.7254 5.48303 4.81716 5.69694 4.99353 5.82374L7.86191 7.8859L3.87558 9.33678L2.39639 8.13739C2.23651 8.00778 2.02033 7.97149 1.82693 8.04192L0.385511 8.56657C0.239494 8.61974 0.120548 8.72872 0.0548831 8.86959C-0.0107816 9.01045 -0.0178129 9.17154 0.0353517 9.3176L0.953486 11.8401C1.25224 12.661 1.85279 13.3164 2.64452 13.6855C3.43624 14.0548 4.3243 14.0935 5.14517 13.7948L8.657 12.5165L7.89973 15.4902C7.84613 15.7007 7.91336 15.9236 8.07438 16.0693C8.18391 16.1684 8.32461 16.2208 8.46762 16.2208C8.53485 16.2208 8.60266 16.2092 8.66794 16.1854L11.3707 15.2017C11.5211 15.147 11.6426 15.033 11.7069 14.8863L13.5216 10.7459L18.9007 8.78814C19.7663 8.47302 20.2142 7.51246 19.8991 6.64683ZM6.57776 5.51936L8.00301 5.00064L11.3025 6.63363L9.1947 7.40078L6.57776 5.51936ZM18.4998 7.68688L12.8852 9.73041C12.7347 9.78518 12.6132 9.89913 12.5489 10.0458L10.7342 14.1862L9.30892 14.705L10.0662 11.7313C10.1198 11.5208 10.0526 11.2979 9.89154 11.1522C9.78201 11.0531 9.6413 11.0007 9.4983 11.0007C9.43103 11.0007 9.36322 11.0123 9.29798 11.0361L4.74434 12.6935C4.21762 12.8852 3.64777 12.8603 3.13976 12.6234C2.63174 12.3865 2.24639 11.966 2.05471 11.4393L1.33697 9.46736L1.91603 9.25658L3.39523 10.456C3.55507 10.5855 3.77125 10.6218 3.96469 10.5514L14.8117 6.60343C16.0356 6.15796 17.3597 6.21577 18.5401 6.76621C18.6608 6.8225 18.7524 6.92246 18.798 7.04765C18.8919 7.30609 18.7582 7.59285 18.4998 7.68688Z"></path>
</svg>
