<svg xmlns="http://www.w3.org/2000/svg" fill="none" viewBox="0 0 24 24" height="24" width="24">
<path fill="#1A1A1A" d="M22.0037 3.47447C21.7971 3.27792 21.5265 3.17765 21.2417 3.19153C19.9392 3.25589 18.5909 3.10439 17.2338 2.74073C15.4876 2.27283 13.901 1.49301 12.6455 0.485576C12.2655 0.180701 11.7348 0.180701 11.3547 0.485576C10.0992 1.49301 8.51266 2.27278 6.76647 2.74069C5.40939 3.10429 4.06085 3.25598 2.75857 3.19148C2.47338 3.17751 2.20314 3.27787 1.99657 3.47447C1.79004 3.67106 1.67627 3.93633 1.67627 4.22147V11.3595C1.67627 17.3876 5.9733 22.5911 11.8937 23.7322C11.9288 23.739 11.9645 23.7424 12.0001 23.7424C12.0357 23.7424 12.0714 23.739 12.1066 23.7322C18.0269 22.5911 22.324 17.3875 22.324 11.3595V4.22151C22.324 3.93637 22.2102 3.67111 22.0037 3.47447ZM21.199 11.3595C21.199 16.8132 17.337 21.5258 12.0001 22.6066C6.66325 21.5258 2.80127 16.8132 2.80127 11.3595V4.31962C4.18994 4.37775 5.62132 4.21223 7.05766 3.82744C8.92643 3.32667 10.6336 2.49136 12.0001 1.40986C13.3666 2.4914 15.0738 3.32667 16.9426 3.82744C18.379 4.21228 19.8103 4.37789 21.199 4.31962V11.3595Z"></path>
<path fill="#1A1A1A" d="M19 13.7258V9.27422C19 7.46883 17.4299 6 15.5 6C13.5701 6 12 7.46883 12 9.27422V13.7258C12 15.5312 13.5701 17 15.5 17C17.4299 17 19 15.5312 19 13.7258ZM17.9509 13.7258C17.9509 14.99 16.8514 16.0186 15.5 16.0186C14.1486 16.0186 13.0491 14.99 13.0491 13.7258V9.27422C13.0491 8.00997 14.1486 6.9814 15.5 6.9814C16.8514 6.9814 17.9509 8.00997 17.9509 9.27422V13.7258Z"></path>
<path fill="#1A1A1A" d="M8 16.0058C6.9938 16.0058 6.13035 15.2387 5.99155 14.2214C5.97853 14.1262 5.97199 14.0287 5.97199 13.9315C5.97199 13.6569 5.75439 13.4344 5.48599 13.4344C5.2176 13.4344 5 13.6569 5 13.9315C5 14.0745 5.00972 14.2183 5.0289 14.3588C5.23431 15.8646 6.51157 17 8 17C9.65419 17 11 15.6234 11 13.9315C11 12.8469 10.4471 11.892 9.61434 11.3461C10.3678 10.818 10.8631 9.93136 10.8631 8.92856C10.8631 7.31372 9.57876 6 8 6C6.63488 6 5.45333 6.99313 5.19057 8.36147C5.13886 8.63083 5.31039 8.89217 5.5738 8.94506C5.83714 8.99795 6.09264 8.82251 6.14435 8.55308C6.31782 7.64983 7.09826 6.99419 8.00007 6.99419C9.04288 6.99419 9.89122 7.86199 9.89122 8.92856C9.89122 9.99513 9.04288 10.8629 8.00007 10.8629C7.73167 10.8629 7.51407 11.0855 7.51407 11.36C7.51407 11.6345 7.73167 11.8571 8.00007 11.8571C9.1183 11.8571 10.0281 12.7877 10.0281 13.9315C10.0281 15.0752 9.11824 16.0058 8 16.0058Z"></path>
</svg>
