<svg xmlns="http://www.w3.org/2000/svg" fill="none" viewBox="0 0 20 20" height="20" width="20">
<path fill="#FF30CC" d="M17.2169 9.47906L12.1952 7.80518L10.5212 2.78336C10.4415 2.5441 10.2177 2.38281 9.96545 2.38281C9.71338 2.38281 9.48953 2.5441 9.40973 2.78336L7.73584 7.80518L2.71402 9.47906C2.47476 9.55872 2.31348 9.78271 2.31348 10.0348C2.31348 10.2869 2.47476 10.5107 2.71402 10.5905L7.73584 12.2644L9.40973 17.2862C9.48953 17.5255 9.71338 17.6868 9.96545 17.6868C10.2175 17.6868 10.4415 17.5255 10.5212 17.2862L12.1951 12.2644L17.2169 10.5905C17.4561 10.5107 17.6174 10.2869 17.6174 10.0348C17.6174 9.78271 17.4561 9.55872 17.2169 9.47906ZM11.5467 11.2456C11.3719 11.3039 11.2345 11.4412 11.1762 11.6161L9.96545 15.2486L8.75467 11.6161C8.69638 11.4412 8.5592 11.3039 8.38419 11.2456L4.75183 10.0348L8.38419 8.82401C8.5592 8.76572 8.69638 8.62854 8.75467 8.45352L9.96545 4.82117L11.1762 8.45352C11.2345 8.62854 11.3719 8.76572 11.5467 8.82401L15.1791 10.0348L11.5467 11.2456Z"></path>
<path fill="#FF30CC" d="M17.0277 14.1354H16.4419V13.5497C16.4419 13.2262 16.1796 12.9639 15.856 12.9639C15.5325 12.9639 15.2702 13.2262 15.2702 13.5497V14.1354H14.6844C14.3609 14.1354 14.0986 14.3977 14.0986 14.7214C14.0986 15.0449 14.3609 15.3072 14.6844 15.3072H15.2702V15.8929C15.2702 16.2164 15.5325 16.4787 15.856 16.4787C16.1796 16.4787 16.4419 16.2164 16.4419 15.8929V15.3072H17.0277C17.3512 15.3072 17.6135 15.0449 17.6135 14.7214C17.6135 14.3977 17.3512 14.1354 17.0277 14.1354Z"></path>
<path fill="#FF30CC" d="M2.96811 4.76224H3.55389V5.34802C3.55389 5.67166 3.81619 5.93396 4.13968 5.93396C4.46332 5.93396 4.72562 5.67166 4.72562 5.34802V4.76224H5.3114C5.63489 4.76224 5.89719 4.49994 5.89719 4.17645C5.89719 3.85297 5.63489 3.59067 5.3114 3.59067H4.72562V3.00488C4.72562 2.68124 4.46332 2.41895 4.13968 2.41895C3.81619 2.41895 3.55389 2.68124 3.55389 3.00488V3.59067H2.96811C2.64462 3.59067 2.38232 3.85297 2.38232 4.17645C2.38232 4.49994 2.64462 4.76224 2.96811 4.76224Z"></path>
</svg>
