<?xml version="1.0" encoding="utf-8"?>
<!-- Generator: Adobe Illustrator 27.1.1, SVG Export Plug-In . SVG Version: 6.00 Build 0)  -->
<svg version="1.1" id="Layer_1" xmlns="http://www.w3.org/2000/svg" xmlns:xlink="http://www.w3.org/1999/xlink" x="0px" y="0px"
	 viewBox="0 0 500 500" style="enable-background:new 0 0 500 500;" xml:space="preserve">
<style type="text/css">
	.st0{fill:#FF00D7;}
</style>
<g id="a">
</g>
<g id="b">
	<g id="c">
		<g>
			<g>
				<path class="st0" d="M365.5,136.1c-60,85.7-118.8,148.2-131.3,139.4c-12.5-8.8,26-85.4,86-171.1c60-85.7,78.1-90,90.6-81.2
					C423.3,31.9,425.5,50.4,365.5,136.1L365.5,136.1z"/>
				<path class="st0" d="M161.7,157.3c85.7,60,148.2,118.8,139.4,131.3c-8.8,12.5-85.4-26-171.1-86c-85.7-60-90-78.1-81.2-90.6
					S75.9,97.2,161.7,157.3L161.7,157.3z"/>
				<path class="st0" d="M138.5,363.9c60-85.7,118.8-148.2,131.3-139.4c12.5,8.8-26,85.4-86,171.1c-60,85.7-78.1,90-90.6,81.2
					C80.7,468.1,78.5,449.6,138.5,363.9L138.5,363.9z"/>
				<path class="st0" d="M338.3,348.5c-85.7-60-148.2-118.8-139.4-131.3c8.8-12.5,85.4,26,171.1,86c85.7,60,90,78.1,81.2,90.6
					C442.5,406.3,424.1,408.5,338.3,348.5L338.3,348.5z"/>
			</g>
		</g>
	</g>
</g>
</svg>
