<?xml version="1.0" encoding="utf-8"?>
<!-- Generator: Adobe Illustrator 27.1.1, SVG Export Plug-In . SVG Version: 6.00 Build 0)  -->
<svg version="1.1" id="Layer_1" xmlns="http://www.w3.org/2000/svg" xmlns:xlink="http://www.w3.org/1999/xlink" x="0px" y="0px"
	 viewBox="0 0 700 700" style="enable-background:new 0 0 700 700;" xml:space="preserve">
<style type="text/css">
	.st0{fill:none;stroke:#FF30CC;stroke-width:54.3212;stroke-linecap:round;stroke-linejoin:round;stroke-miterlimit:10;}
	.st1{fill:none;stroke:#FF30CC;stroke-width:54.3212;stroke-linecap:round;stroke-miterlimit:10;}
</style>
<g>
	<g>
		<g>
			<path class="st0" d="M667.2,233.2c-11.1,11.5-19.1,19.8-36.4,19.8s-25.3-8.3-36.4-19.8c-12.2-12.8-27.6-49.8-57.2-49.8
				c-29.5,0-44.8,37.1-57.2,49.8C469,244.8,461,253,443.7,253c-17.2,0-25.4-8.3-36.4-19.8c-12.4-12.8-27.6-49.8-57.2-49.8
				s-44.8,37.1-57.2,49.8c-11.1,11.5-19.1,19.8-36.4,19.8s-25.4-8.3-36.4-19.8c-12.4-12.8-27.7-49.8-57.2-49.8s-44.8,37.1-57.2,49.8
				C94.7,244.8,86.7,253,69.3,253s-25.4-8.3-36.5-19.8"/>
			<path class="st1" d="M537.3,233.3"/>
		</g>
		<g>
			<path class="st0" d="M69.4,253c17.2,0,25.3-8.3,36.4-19.8c12.4-12.8,27.6-49.8,57.2-49.8c29.5,0,44.8,37.1,57.2,49.8
				c11.1,11.5,19.1,19.8,36.4,19.8s25.3-8.3,36.4-19.8c12.2-12.8,27.6-49.8,57.2-49.8c29.5,0,44.8,37.1,57.2,49.8
				c11.1,11.5,19.1,19.8,36.4,19.8c17.2,0,25.4-8.3,36.4-19.8c12.4-12.8,27.6-49.8,57.2-49.8c29.6,0,44.8,37.1,57.2,49.8
				c11.1,11.5,19.1,19.8,36.4,19.8c17.2,0,25.4-8.3,36.4-19.8"/>
			<path class="st1" d="M126.6,253.2"/>
			<path class="st1" d="M350.1,233.3"/>
		</g>
	</g>
	<g>
		<g>
			<path class="st0" d="M667.2,364.9c-11.1,11.5-19.1,19.8-36.4,19.8s-25.3-8.3-36.4-19.8c-12.2-12.8-27.6-49.8-57.2-49.8
				c-29.5,0-44.8,37.1-57.2,49.8c-11.1,11.5-19.1,19.8-36.4,19.8c-17.2,0-25.4-8.3-36.4-19.8c-12.4-12.8-27.6-49.8-57.2-49.8
				s-44.8,37.1-57.2,49.8c-11.1,11.5-19.1,19.8-36.4,19.8s-25.4-8.3-36.4-19.8c-12.4-12.8-27.7-49.8-57.2-49.8s-44.8,37.1-57.2,49.8
				c-11.1,11.5-19.1,19.8-36.5,19.8s-25.4-8.3-36.5-19.8"/>
			<path class="st1" d="M537.3,365.1"/>
		</g>
		<g>
			<path class="st0" d="M69.4,384.8c17.2,0,25.3-8.3,36.4-19.8c12.4-12.8,27.6-49.8,57.2-49.8c29.5,0,44.8,37.1,57.2,49.8
				c11.1,11.5,19.1,19.8,36.4,19.8s25.3-8.3,36.4-19.8c12.2-12.8,27.6-49.8,57.2-49.8c29.5,0,44.8,37.1,57.2,49.8
				c11.1,11.5,19.1,19.8,36.4,19.8c17.2,0,25.4-8.3,36.4-19.8c12.4-12.8,27.6-49.8,57.2-49.8c29.6,0,44.8,37.1,57.2,49.8
				c11.1,11.5,19.1,19.8,36.4,19.8c17.2,0,25.4-8.3,36.4-19.8"/>
			<path class="st1" d="M126.6,384.9"/>
			<path class="st1" d="M350.1,365.1"/>
		</g>
	</g>
	<g>
		<g>
			<path class="st0" d="M667.2,496.7c-11.1,11.5-19.1,19.8-36.4,19.8s-25.3-8.3-36.4-19.8c-12.2-12.8-27.6-49.8-57.2-49.8
				c-29.5,0-44.8,37.1-57.2,49.8c-11.1,11.5-19.1,19.8-36.4,19.8c-17.2,0-25.4-8.3-36.4-19.8c-12.4-12.8-27.6-49.8-57.2-49.8
				s-44.8,37.1-57.2,49.8c-11.1,11.5-19.1,19.8-36.4,19.8s-25.4-8.3-36.4-19.8c-12.4-12.8-27.7-49.8-57.2-49.8s-44.8,37.1-57.2,49.8
				c-11.1,11.5-19.1,19.8-36.5,19.8s-25.4-8.3-36.5-19.8"/>
			<path class="st1" d="M537.3,496.8"/>
		</g>
		<g>
			<path class="st0" d="M69.4,516.5c17.2,0,25.3-8.3,36.4-19.8c12.4-12.8,27.6-49.8,57.2-49.8c29.5,0,44.8,37.1,57.2,49.8
				c11.1,11.5,19.1,19.8,36.4,19.8s25.3-8.3,36.4-19.8c12.2-12.8,27.6-49.8,57.2-49.8c29.5,0,44.8,37.1,57.2,49.8
				c11.1,11.5,19.1,19.8,36.4,19.8c17.2,0,25.4-8.3,36.4-19.8c12.4-12.8,27.6-49.8,57.2-49.8c29.6,0,44.8,37.1,57.2,49.8
				c11.1,11.5,19.1,19.8,36.4,19.8c17.2,0,25.4-8.3,36.4-19.8"/>
			<path class="st1" d="M126.6,516.6"/>
			<path class="st1" d="M350.1,496.8"/>
		</g>
	</g>
</g>
</svg>
