<svg xmlns="http://www.w3.org/2000/svg" fill="none" viewBox="0 0 40 40" height="40" width="40">
<path fill="#C4FF00" d="M0 20C0 8.95431 8.95431 0 20 0C31.0457 0 40 8.95431 40 20C40 31.0457 31.0457 40 20 40C8.95431 40 0 31.0457 0 20Z"></path>
<path fill="#FF30CC" d="M11.4302 14.5526C11.3062 18.2164 12.5157 23.2398 13.9471 24.9622C14.3673 25.4718 14.5886 25.9573 14.5886 26.3705C14.5886 26.8802 14.2433 27.2197 13.7251 27.2197H8.83898C8.32075 27.2197 8 26.8802 8 26.3705C8 25.9828 8.19749 25.5455 8.64149 24.9877C9.57852 23.799 10.0982 21.2274 10.0982 18.6545C10.0982 16.0815 9.62895 13.7282 8.61698 12.4906C8.19819 11.981 8 11.4955 8 11.0823C8 10.5726 8.32075 10.2331 8.83898 10.2331H12.8602C13.354 10.2331 13.6502 10.6208 13.9954 11.0582C16.0397 13.8728 18.4502 17.4974 21.3754 21.4698C21.3754 16.7743 20.7326 14.2991 19.1778 12.49C18.7576 11.9803 18.5363 11.4948 18.5363 11.0816C18.5363 10.5719 18.8816 10.2324 19.3998 10.2324H24.286C24.8042 10.2324 25.1495 10.5719 25.1495 11.0816C25.1495 11.4693 24.9275 11.9066 24.4835 12.4645C23.398 13.8233 22.7074 17.0994 22.7074 20.1083C22.7074 21.9285 22.6773 23.4987 23.7033 25.0297C24.5745 26.3189 26.6944 27.2645 28.1013 27.2645C28.7428 27.2645 29.4817 27.2293 29.4817 26.7197C29.4817 25.8623 27.1349 26.1329 27.1349 24.0097C27.1349 23.0621 28.5397 22.2701 29.3899 22.2701C31.1918 22.2701 32 23.3327 32 24.8128C32 27.0207 30.0475 29.9029 26.2504 29.7623C23.4428 29.7623 21.6976 27.5461 17.4641 22.3417C15.3751 19.7743 14.7371 18.0339 11.4302 14.5512"></path>
</svg>
