<svg xmlns="http://www.w3.org/2000/svg" fill="none" viewBox="0 0 25 24" height="24" width="25">
<g clip-path="url(#clip0_3158_20143)">
<g clip-path="url(#clip1_3158_20143)">
<mask height="24" width="25" y="0" x="0" maskUnits="userSpaceOnUse" style="mask-type:luminance" id="mask0_3158_20143">
<path fill="white" d="M24.7761 0H0.154869V24H24.7761V0Z"></path>
</mask>
<g mask="url(#mask0_3158_20143)">
<path fill="white" d="M12.4647 1.85762C12.0808 0.909769 11.1457 -0.113903 9.3945 0.0267048C7.16363 0.266576 6.46844 2.38107 6.80553 3.64255C5.91704 3.04749 4.40621 2.7858 3.08747 3.90304C1.38483 5.59114 2.29555 7.87406 3.23154 8.42167C2.19997 8.32718 0.569645 9.01661 0.208956 10.82C-0.174738 13.0591 1.55108 14.3644 3.23154 14.3644H21.8663C23.8096 14.3644 24.8878 12.7017 24.7669 11.1336C24.5761 9.08711 22.6827 8.3019 21.6498 8.47013C22.5128 7.99399 23.6653 5.75715 21.9128 3.99874C20.5218 2.6901 18.7484 3.1662 18.1249 3.737C18.461 2.64378 17.9099 0.383959 15.6536 0.0264902C15.4977 0.00923077 15.3476 0 15.2045 0C13.4821 0.000171735 12.7077 1.24538 12.4647 1.85762Z"></path>
<path fill="black" d="M3.39768 4.25958C2.41381 5.14045 2.05573 7.13635 3.82928 8.30313L10.9047 13.1042L7.47402 5.33065C6.75515 3.49624 4.78856 3.09623 3.39768 4.25958Z"></path>
<path fill="black" d="M9.4883 0.47945C8.33818 0.502591 6.61125 1.8572 7.37981 3.92566L10.9279 12.2021L12.1748 3.49688C12.4633 1.33383 10.8082 0.335321 9.4883 0.47945Z"></path>
<path fill="black" d="M12.729 3.16498H13.3999C13.3999 3.16498 13.7582 3.16498 13.807 3.33212C13.543 3.54537 12.8242 3.57207 12.9196 4.71118L14.0476 12.201L17.5716 3.90283C18.2924 2.05003 16.7793 0.502649 15.4372 0.455336C15.3745 0.450873 15.3116 0.447266 15.2466 0.447266C14.0419 0.447221 12.6614 1.31311 12.729 3.16498Z"></path>
<path fill="black" d="M17.4292 5.40072L14.096 13.081L21.1694 8.25458C22.7999 7.11072 22.5369 5.28199 21.6242 4.37813C21.2416 3.95269 20.5391 3.62402 19.7948 3.62402C18.9156 3.6239 17.9746 4.08514 17.4292 5.40072Z"></path>
<path fill="black" d="M20.3778 9.34805L13.735 13.9371H21.9141C23.5921 13.9371 24.6705 12.2258 24.1911 10.6555C23.8701 9.66853 22.9202 8.8937 21.8176 8.89258C21.3535 8.8928 20.8613 9.03103 20.3778 9.34805Z"></path>
<path fill="black" d="M3.20764 13.9367H11.2661L4.62166 9.34764C3.08671 8.37219 1.36062 8.94294 0.737525 10.5616C0.209365 12.4147 1.5281 13.9367 3.20764 13.9367Z"></path>
<path fill="black" d="M12.1316 20.2153H13.6266C13.9702 20.2367 14.5793 20.5335 14.5793 21.2362C14.5793 21.9713 13.9471 22.2679 13.6046 22.3014H12.1316V20.2153ZM12.1088 16.9429H13.3393C13.7599 16.9653 14.2572 17.2727 14.2572 17.8435C14.2572 18.4033 13.8812 18.7764 13.3947 18.8429H12.1088V16.9429ZM10.4265 15.5811V23.6619H14.3908C15.3318 23.6619 16.4503 22.7291 16.4503 21.5103C16.4503 20.2369 15.6092 19.6115 15.077 19.3588C15.077 19.3588 16.0515 18.7989 16.0082 17.5908C15.9638 15.9658 14.446 15.5811 13.9257 15.5811H10.4265Z"></path>
<path fill="black" d="M4.34632 23.6623V19.0081L9.48469 23.9698V15.5815H7.75803V20.1168L2.61847 15.2529V23.6623H4.34632Z"></path>
<path fill="black" d="M16.7276 19.534C16.7709 22.0894 18.6273 24 21.0139 24C21.5797 24 22.1759 23.8941 22.7851 23.6619V22.0154C22.3023 22.3072 21.765 22.4479 21.2386 22.4479C19.7944 22.4479 18.4317 21.3909 18.488 19.4684C18.5854 17.9089 19.8762 16.832 21.2674 16.832C21.7769 16.832 22.3009 16.9771 22.7851 17.2943V15.6919C22.2205 15.4655 21.6592 15.3643 21.1185 15.3643C18.738 15.3642 16.7733 17.3503 16.7276 19.534Z"></path>
</g>
</g>
</g>
<defs>
<clipPath id="clip0_3158_20143">
<rect fill="white" height="24" width="25"></rect>
</clipPath>
<clipPath id="clip1_3158_20143">
<rect fill="white" height="24" width="25"></rect>
</clipPath>
</defs>
</svg>
