<svg xmlns="http://www.w3.org/2000/svg" fill="none" viewBox="0 0 47 24" height="24" width="47">
<g clip-path="url(#clip0_3158_20161)">
<g clip-path="url(#clip1_3158_20161)">
<path fill="black" d="M28.7655 4.72352C27.2154 4.80096 25.8097 5.33178 24.6671 5.8382C24.3447 5.9811 23.7889 6.39895 23.4807 6.41178C23.1176 6.4273 22.4561 6.06117 21.9653 5.91972C19.7944 5.29489 16.4913 4.48191 14.7998 5.79698C12.6755 5.48885 10.7172 6.01578 9.10847 6.4933C9.01765 5.22223 7.83052 4.46102 6.44695 4.85512C5.52131 5.11829 4.76189 5.64081 3.82667 6.00223C1.99503 6.70886 0.144972 8.21393 0.263562 10.5877C0.319788 11.7044 0.80569 12.6133 1.12389 13.4123C1.45585 14.2458 1.80351 14.9107 2.35252 15.8695C2.20152 16.1514 2.06721 16.3306 2.02449 16.6474C1.66872 19.3084 5.22469 19.3958 7.10202 18.6126C8.72129 17.9359 10.4184 16.7382 11.5657 15.8695C10.6452 19.8098 16.834 19.9839 18.4032 17.9988C20.6097 19.6475 25.3786 19.4646 27.7382 18.0803C29.9172 19.8353 34.7507 19.1667 37.688 18.4898C39.2071 18.1397 40.5464 17.8576 41.5378 17.1394C42.5524 16.4028 43.1875 15.2749 43.4608 13.8228C43.2526 13.2664 42.8969 12.8598 42.5602 12.4302C42.7279 12.0776 42.7765 11.4377 42.684 10.956C43.9678 10.0368 45.0369 8.60486 46.0006 7.39389C46.1155 7.24883 46.3352 7.05921 46.2854 6.8616C41.8932 6.17729 37.6575 4.81217 32.5702 5.06039C32.249 5.07567 31.8854 5.16865 31.5871 5.1419C31.1488 5.10236 30.7712 4.88463 30.3594 4.81486C29.8151 4.72218 29.2821 4.69771 28.7655 4.72352Z"></path>
<path fill="white" d="M29.0346 6.33768C27.0479 6.37761 25.1903 7.36796 23.7263 8.17126C22.1652 9.02766 20.7717 10.0336 19.7945 11.0373C20.1478 10.4353 20.5232 9.8402 20.9416 9.27747C21.3659 8.7061 21.8382 8.18928 22.2115 7.68029C21.3953 7.4669 20.5768 7.24085 19.7535 7.06556C18.5834 6.81658 16.9562 6.4039 15.9869 6.94281C15.7065 7.0985 15.4774 7.48175 15.209 7.51612C14.9876 7.54504 14.6218 7.38392 14.3488 7.35348C13.3483 7.24222 12.4282 7.33419 11.5242 7.51612C10.6774 7.68578 8.88666 7.98728 8.65761 8.78549C8.51053 9.29789 8.8378 9.7941 8.78035 10.3008C8.7241 10.7995 8.24553 11.4583 8.00247 11.8561C7.70492 12.3435 7.40231 12.7756 6.89677 13.0022C6.59035 11.4767 6.92339 10.1213 7.18317 8.82741C7.3437 8.03021 7.66745 7.21429 7.38875 6.41143C6.60822 6.30289 5.95102 6.92085 5.17785 7.22972C3.72555 7.81115 2.10793 8.34017 1.90266 10.0139C1.78702 10.9563 2.14074 11.5565 2.39364 12.2258C2.93551 13.6639 3.60495 14.8805 4.39997 15.992C4.18317 16.3902 3.67264 16.4942 3.62107 17.0558C3.85212 17.3831 4.33428 17.425 4.80962 17.425C6.1836 17.422 7.3099 16.7302 8.33029 16.1552C10.5524 14.9054 12.0449 12.9804 13.6123 11.16C13.8876 10.8401 14.1143 10.4549 14.4725 10.2604C14.8246 11.8777 14.1399 12.7416 13.6527 14.067C13.4651 14.5777 12.8722 16.1761 13.1612 16.933C13.4772 17.7659 16.1728 17.802 16.8875 17.2619C17.2475 16.9901 17.3919 16.3743 17.5851 15.992C17.8316 15.5002 18.0445 15.0754 18.2392 14.6408C18.2503 16.4344 19.5829 16.9612 21.0234 17.3432C24.0857 18.1527 27.1726 16.7066 28.8427 15.7061C28.634 17.0349 29.1514 17.1678 30.1954 17.3846C32.8957 17.942 35.6143 17.299 37.8105 16.7699C39.8239 16.2852 41.4436 15.9421 41.7419 13.9443C41.4197 13.6656 40.6138 13.7001 40.0623 13.7811C38.4389 14.0188 36.8665 14.8399 34.699 14.6817C34.3036 14.6528 33.4499 14.515 33.3882 14.2731C33.2932 13.8948 33.9696 13.6301 34.5363 13.5356C36.161 13.2606 38.5095 13.5384 39.8169 13.0436C40.4454 12.8067 41.2022 12.1226 41.1261 11.3651C41.0763 10.8537 40.4094 10.5862 39.7759 10.5473C37.9843 10.4352 36.7035 11.4803 34.8228 11.1196C35.058 10.8223 35.1001 10.3337 35.3956 10.0963C36.7705 10.0675 38.1064 10.3412 39.4077 10.2604C41.2173 10.1472 42.2379 9.385 43.0936 8.37685C43.185 8.26812 43.4147 8.15084 43.3391 7.96719C40.1963 7.48919 35.9117 6.22253 32.0375 6.69733C31.536 6.75795 31.1758 7.28159 30.8465 7.48784C30.847 7.48344 30.851 7.48193 30.8495 7.47521C30.9123 7.19556 31.0307 6.97313 31.0546 6.65692C30.3734 6.41697 29.6968 6.32474 29.0346 6.33819L29.0346 6.33768ZM30.5636 8.33543C30.9463 8.77172 31.7841 8.75299 32.2825 9.0729C31.6098 9.24576 30.7626 9.24488 30.1529 9.48154C30.2966 9.10618 30.4258 8.71645 30.5636 8.33543ZM25.813 9.84977C25.6116 10.7683 25.1902 11.8201 24.9537 12.8386C26.2553 12.8569 27.6281 12.5923 28.9664 12.5117C29.1474 12.2697 29.2361 11.9359 29.3351 11.6111C29.6032 11.9912 29.7924 12.7014 29.5402 13.2482C27.5077 13.22 26.0463 14.8837 24.0531 14.8863C23.1601 14.8873 22.4019 14.3732 22.8247 13.371C23.4216 11.9567 24.9015 10.9689 25.813 9.84977Z"></path>
</g>
</g>
<defs>
<clipPath id="clip0_3158_20161">
<rect fill="white" height="24" width="46.5517"></rect>
</clipPath>
<clipPath id="clip1_3158_20161">
<rect transform="translate(0 4.5)" fill="white" height="15" width="46.5517"></rect>
</clipPath>
</defs>
</svg>
